# xmcd
#
# Track frame offsets:
#	150
#	18441
#	34171
#	50458
#	66346
#	76914
#	90027
#	104751
#	128325
#	143679
#	167397
#	189499
#	204061
#	214553
#	229718
#
# Disc length: 3283 seconds
#
# Revision: 1
# Processed by: cddbd v1.5.2PL0 Copyright (c) Steve Scherf et al.
# Submitted via: audiograbber 1.83.01
#
DISCID=b30cd10f
DTITLE=Steve Earle - Townes
DYEAR=2009
DGENRE=Country
TTITLE0=Pancho and Lefty
TTITLE1=White Freightliner Blues
TTITLE2=Colorado Girl
TTITLE3=Where I Lead Me
TTITLE4=Lungs
TTITLE5=No Place To Fall
TTITLE6=Loretta
TTITLE7=Brand New Companion
TTITLE8=Rake
TTITLE9=Delta Momma Blues
TTITLE10=Marie
TTITLE11=Don't Take It Too Bad
TTITLE12=Mr. Mudd and Mr. Gold
TTITLE13=(Quicksilver Daydreams of) Maria
TTITLE14=To Live Is To Fly
EXTD=
EXTT0=
EXTT1=
EXTT2=
EXTT3=
EXTT4=
EXTT5=
EXTT6=
EXTT7=
EXTT8=
EXTT9=
EXTT10=
EXTT11=
EXTT12=
EXTT13=
EXTT14=
PLAYORDER=
